<?xml version="1.0" encoding="UTF-8"?>
<svg id="Layer_1" xmlns="http://www.w3.org/2000/svg" version="1.1" xmlns:xlink="http://www.w3.org/1999/xlink" viewBox="0 0 1152 317.26">
  <!-- Generator: Adobe Illustrator 30.5.0, SVG Export Plug-In . SVG Version: 2.1.4 Build 102)  -->
  <defs>
    <style>
      .st0 {
        fill: url(#linear-gradient2);
      }

      .st1 {
        fill: #fff;
      }

      .st2 {
        fill: url(#linear-gradient1);
      }

      .st3 {
        fill: url(#linear-gradient);
      }
    </style>
    <linearGradient id="linear-gradient" x1="85.01" y1="78.14" x2="254.41" y2="268.46" gradientUnits="userSpaceOnUse">
      <stop offset="0" stop-color="#8cbd3f"/>
      <stop offset=".14" stop-color="#86ba3f"/>
      <stop offset=".32" stop-color="#76b33f"/>
      <stop offset=".52" stop-color="#5ca83f"/>
      <stop offset=".73" stop-color="#379840"/>
      <stop offset=".96" stop-color="#088340"/>
      <stop offset="1" stop-color="#008041"/>
    </linearGradient>
    <linearGradient id="linear-gradient1" x1="179.67" y1="133.9" x2="288.64" y2="256.33" gradientUnits="userSpaceOnUse">
      <stop offset="0" stop-color="#008041"/>
      <stop offset=".25" stop-color="#017b3e"/>
      <stop offset=".51" stop-color="#046f38"/>
      <stop offset=".78" stop-color="#095a2d"/>
      <stop offset="1" stop-color="#0f4321"/>
    </linearGradient>
    <linearGradient id="linear-gradient2" x1="192.86" y1="56.85" x2="256.43" y2="115.3" gradientUnits="userSpaceOnUse">
      <stop offset="0" stop-color="#0074b4"/>
      <stop offset="1" stop-color="#023956"/>
    </linearGradient>
  </defs>
  <path class="st3" d="M195.28,149.46c-34.36-32.83-56.5-57.65-50.76-85.98,6.34-31.26,42.79-50.36,81.64-42.61,10.63,2.12,20.28,6.07,28.63,11.27C228.14,11.98,194.96,0,158.96,0c-41.91,0-87.46,15.88-109.8,53.54-6.1,10.29-9.58,21.97-9.25,33.98.39,14.37,5.9,28.08,13.36,40.19,32.45,52.68,62.6,47.51,79.02,88.36,13.01,32.37-18.75,59.45-63.36,21.21C18.37,193.95,4.16,104.88,38.67,55.11,14.59,82.97,0,119.25,0,158.96c0,27.05,6.95,53.92,20.18,77.52,10.7,19.09,24.2,35.17,42.61,47.13,19.52,12.68,42.47,21.22,65.71,23.46,11.57,1.11,23.32.51,34.64-2.16,18.41-4.35,35.1-13.99,48.94-26.79,40.85-37.8,17.56-95.83-16.8-128.66Z"/>
  <path class="st2" d="M274.33,49.65h0c9.45,12.37,13.83,27.15,10.89,41.88-3.61,18.12-17.02,33.22-35.91,39.23-14.34,4.57-24.23,2.41-15.26,17.38,7.88,13.13,15,19.62,19.89,31.77,12.04,29.91,8.72,68.59-13.5,97.32-.27.39-.55.76-.84,1.12,0,0-.01.02-.01.02-.22.28-.44.54-.66.8-4.18,5.08-9.4,10.78-17.54,16.59-.53.39-1.08.76-1.63,1.14-.58.39-1.16.79-1.76,1.18-5.17,3.45-10.82,6.53-16.99,9.16-7.66,3.44-16.82,6.81-27.87,10.01,81.15-7.17,144.8-75.29,144.8-158.3,0-42.36-16.59-80.82-43.6-109.31Z"/>
  <path class="st0" d="M173.08,78.37c0,23.85,19.33,43.18,43.18,43.18s43.18-19.33,43.18-43.18-19.33-43.18-43.18-43.18-43.18,19.33-43.18,43.18Z"/>
  <g>
    <path class="st1" d="M435.99,112.2c0-9.17-2.73-15.42-8.86-20.27-5.29-4.1-12.56-6.62-23.32-9.6-9.73-2.7-15.09-4.7-18.5-6.94-3.53-2.27-5.03-5.42-5.03-10.53,0-10.12,7.43-14.64,24.08-14.64,7.17,0,15.63.61,23.81,1.72l1.04.14v-7.93l-.76-.13c-8.87-1.54-19.68-2.54-27.55-2.54-27.28,0-40.54,9.48-40.54,28.97,0,8.59,2.72,15,8.3,19.58,5.59,4.71,14.2,7.53,22.66,9.88l2.64.79c7.72,2.3,13.29,3.96,16.81,6.42,3.85,2.44,5.42,5.64,5.42,11.06,0,11.14-8.41,16.1-27.27,16.1-9.89,0-19.54-.83-28.5-1.72l-1.01-.1v7.77l.76.13c10.34,1.72,21.82,2.67,32.33,2.67,27.62,0,43.46-11.24,43.46-30.83Z"/>
    <rect class="st1" x="454.76" y="42.28" width="21.51" height="99.96"/>
    <path class="st1" d="M549.02,143.17c12.52,0,22.91-.7,31.79-2.14l.77-.13v-54.21h-39.73v8.48h19.15v38.66c-3.23.24-6.63.46-9.99.46-24.98,0-32.59-9.85-32.59-42.17s7.58-41.9,35.25-41.9c6.62,0,14.64.53,23.83,1.59l1.02.12v-7.78l-.76-.13c-9.28-1.61-19.85-2.54-29.01-2.54-34.93,0-52.64,17.13-52.64,50.91s16.81,50.78,52.91,50.78Z"/>
    <polygon class="st1" points="612.16 71.44 669.17 141.89 669.45 142.23 681.57 142.23 681.57 42.28 672.03 42.28 672.03 110.18 616.21 42.61 615.93 42.28 602.62 42.28 602.62 142.23 612.16 142.23 612.16 71.44"/>
    <polygon class="st1" points="865.99 42.28 782.52 42.28 782.52 50.76 813.63 50.76 813.63 142.23 835.01 142.23 835.01 50.76 865.99 50.76 865.99 42.28"/>
    <path class="st1" d="M951.25,104.22c0,21.22-6.72,28.73-25.68,28.73-17.68,0-23.95-7.52-23.95-28.73v-61.95h-21.78v61.41c0,27.11,13.09,39.74,41.2,39.74s39.87-11.55,39.87-39.88v-61.28h-9.68v61.95Z"/>
    <path class="st1" d="M1061.85,72.71c0-19.91-13.93-30.43-40.27-30.43h-38.68v99.96h20.98v-38.56h14.51l21.94,38.56h23.11l-23.21-41.19c13.96-4.45,21.63-14.47,21.63-28.33ZM1003.88,50.76h16.1c15.32,0,20.49,5.54,20.49,21.95s-5.41,22.22-19.96,22.22h-16.64v-44.17Z"/>
    <polygon class="st1" points="1102.8 133.75 1102.8 95.17 1146.55 95.17 1146.55 86.69 1102.8 86.69 1102.8 50.76 1151.34 50.76 1151.34 42.28 1081.29 42.28 1081.29 142.23 1152 142.23 1152 133.75 1102.8 133.75"/>
    <path class="st1" d="M406.23,226.88h19.15v38.66c-3.23.25-6.63.46-9.99.46-24.98,0-32.59-9.85-32.59-42.16s7.58-41.9,35.25-41.9c6.62,0,14.63.53,23.83,1.59l1.02.12v-7.78l-.76-.13c-9.28-1.61-19.85-2.54-29.01-2.54-34.93,0-52.64,17.13-52.64,50.91s16.81,50.78,52.91,50.78c12.51,0,22.91-.7,31.79-2.14l.77-.13v-54.21h-39.73v8.48Z"/>
    <polygon class="st1" points="488.51 173.99 467 173.99 467 273.95 532.12 273.95 532.12 265.47 488.51 265.47 488.51 173.99"/>
    <path class="st1" d="M582.93,172.79c-29.82,0-46.92,18.7-46.92,51.31s17.1,51.04,46.92,51.04,46.79-18.61,46.79-51.04-17.05-51.31-46.79-51.31ZM582.93,181.27c18.17,0,24.61,11.14,24.61,42.56s-6.44,42.83-24.61,42.83-24.61-11.21-24.61-42.83,6.67-42.56,24.61-42.56Z"/>
    <path class="st1" d="M709.22,222.33c10.98-2.91,17.16-10.5,17.16-21.37,0-10.26-3.65-17.31-11.15-21.55-6.54-3.7-16.25-5.42-30.58-5.42h-36.02v99.96h35.75c30.52,0,44.13-8.69,44.13-28.17,0-11.96-7.11-20.46-19.29-23.44ZM685.44,218.8h-15.97v-36.33h15.17c14.17,0,20.49,2.69,20.49,18.63,0,11.74-3.05,17.7-19.69,17.7ZM684.91,265.47h-15.44v-38.72h16.37c13.46,0,20.76,3.03,20.76,19.03,0,13.06-3.36,19.69-21.69,19.69Z"/>
    <polygon class="st1" points="864.8 173.99 843.29 173.99 843.29 273.95 908.41 273.95 908.41 265.47 864.8 265.47 864.8 173.99"/>
    <path class="st1" d="M750.79,42.88l-.22-.6h-18.83l-36.16,99.96h9.53l10.24-28.59.2-.53h38.88l.2.53,10.37,28.59h22.43l-36.62-99.36ZM717.96,106.48l.43-1.18,16.52-45.98,16.64,45.98.43,1.18h-34.02Z"/>
    <path class="st1" d="M792.68,174.65l-.22-.6h-18.83l-36.16,99.96h9.53l10.24-28.59.2-.53h38.88l.2.53,10.37,28.59h22.43l-36.62-99.36ZM759.85,238.26l.43-1.18,16.52-45.98,16.64,45.98.43,1.18h-34.02Z"/>
  </g>
</svg>